<?xml version="1.0" encoding="UTF-8" standalone="no"?><svg xmlns="http://www.w3.org/2000/svg" xmlns:xlink="http://www.w3.org/1999/xlink" contentScriptType="application/ecmascript" contentStyleType="text/css" height="337px" preserveAspectRatio="none" style="width:303px;height:337px;" version="1.1" viewBox="0 0 303 337" width="303px" zoomAndPan="magnify"><defs><filter height="300%" id="fkmzap3" width="300%" x="-1" y="-1"><feGaussianBlur result="blurOut" stdDeviation="2.0"/><feColorMatrix in="blurOut" result="blurOut2" type="matrix" values="0 0 0 0 0 0 0 0 0 0 0 0 0 0 0 0 0 0 .4 0"/><feOffset dx="4.0" dy="4.0" in="blurOut2" result="blurOut3"/><feBlend in="SourceGraphic" in2="blurOut3" mode="normal"/></filter></defs><g><!--cluster GeroTimer--><rect fill="#FFFFFF" filter="url(#fkmzap3)" height="306" style="stroke: #000000; stroke-width: 2.0;" width="216" x="80" y="24"/><text fill="#000000" font-family="sans-serif" font-size="14" font-weight="bold" lengthAdjust="spacingAndGlyphs" textLength="74" x="151" y="40.5332">GeroTimer</text><ellipse cx="187.9197" cy="78.7839" fill="#FEFECE" filter="url(#fkmzap3)" rx="81.9197" ry="18.7839" style="stroke: #A80036; stroke-width: 1.5;"/><text fill="#000000" font-family="sans-serif" font-size="14" lengthAdjust="spacingAndGlyphs" textLength="131" x="122.4197" y="84.0886">Create a new project</text><ellipse cx="187.8112" cy="149.1622" fill="#FEFECE" filter="url(#fkmzap3)" rx="66.3112" ry="15.6622" style="stroke: #A80036; stroke-width: 1.5;"/><text fill="#000000" font-family="sans-serif" font-size="14" lengthAdjust="spacingAndGlyphs" textLength="91" x="142.3112" y="154.4669">Save a project</text><ellipse cx="188.0917" cy="218.1183" fill="#FEFECE" filter="url(#fkmzap3)" rx="81.0917" ry="18.6183" style="stroke: #A80036; stroke-width: 1.5;"/><text fill="#000000" font-family="sans-serif" font-size="14" lengthAdjust="spacingAndGlyphs" textLength="129" x="123.5917" y="223.423">Edit alarm sequence</text><ellipse cx="188.1309" cy="292.8262" fill="#FEFECE" filter="url(#fkmzap3)" rx="92.1309" ry="20.8262" style="stroke: #A80036; stroke-width: 1.5;"/><text fill="#000000" font-family="sans-serif" font-size="14" lengthAdjust="spacingAndGlyphs" textLength="155" x="110.6309" y="298.1309">Execute alarm sequence</text><!--entity User--><ellipse cx="21" cy="151.5" fill="#FEFECE" filter="url(#fkmzap3)" rx="8" ry="8" style="stroke: #A80036; stroke-width: 2.0;"/><path d="M21,159.5 L21,186.5 M8,167.5 L34,167.5 M21,186.5 L8,201.5 M21,186.5 L34,201.5 " fill="#FEFECE" filter="url(#fkmzap3)" style="stroke: #A80036; stroke-width: 2.0;"/><text fill="#000000" font-family="sans-serif" font-size="14" lengthAdjust="spacingAndGlyphs" textLength="29" x="6.5" y="223.0332">User</text><path d="M36.2015,157.213 C44.866,143.166 57.1353,126.703 72,116 C86.1908,105.783 103.3362,98.296 120.006,92.845 " fill="none" style="stroke: #A80036; stroke-width: 1.0;"/><polygon fill="#A80036" points="125.161,91.218,115.3743,90.1136,120.393,92.7235,117.7831,97.7423,125.161,91.218" style="stroke: #A80036; stroke-width: 1.0;"/><path d="M36.0678,181.016 C57.3861,176.494 99.0078,167.665 133.153,160.422 " fill="none" style="stroke: #A80036; stroke-width: 1.0;"/><polygon fill="#A80036" points="138.133,159.366,128.499,157.3198,133.2417,160.4031,130.1584,165.1458,138.133,159.366" style="stroke: #A80036; stroke-width: 1.0;"/><path d="M36.0678,186.899 C55.1534,190.832 90.5125,198.118 122.211,204.649 " fill="none" style="stroke: #A80036; stroke-width: 1.0;"/><polygon fill="#A80036" points="127.264,205.691,119.2578,199.9551,122.3671,204.6808,117.6414,207.7901,127.264,205.691" style="stroke: #A80036; stroke-width: 1.0;"/><path d="M36.105,211.487 C44.7402,225.92 57.0124,242.87 72,254 C85.1147,263.7391 100.8257,271.1554 116.36,276.763 " fill="none" style="stroke: #A80036; stroke-width: 1.0;"/><polygon fill="#A80036" points="121.172,278.4457,113.9962,271.6998,116.4521,276.7957,111.3562,279.2516,121.172,278.4457" style="stroke: #A80036; stroke-width: 1.0;"/></g></svg>