<?xml version="1.0" encoding="UTF-8" standalone="no"?><svg xmlns="http://www.w3.org/2000/svg" xmlns:xlink="http://www.w3.org/1999/xlink" contentScriptType="application/ecmascript" contentStyleType="text/css" height="271px" preserveAspectRatio="none" style="width:298px;height:271px;" version="1.1" viewBox="0 0 298 271" width="298px" zoomAndPan="magnify"><defs><filter height="300%" id="fiavwbd" width="300%" x="-1" y="-1"><feGaussianBlur result="blurOut" stdDeviation="2.0"/><feColorMatrix in="blurOut" result="blurOut2" type="matrix" values="0 0 0 0 0 0 0 0 0 0 0 0 0 0 0 0 0 0 .4 0"/><feOffset dx="4.0" dy="4.0" in="blurOut2" result="blurOut3"/><feBlend in="SourceGraphic" in2="blurOut3" mode="normal"/></filter></defs><g><!--cluster GeroTimer--><rect fill="#FFFFFF" filter="url(#fiavwbd)" height="240" style="stroke: #000000; stroke-width: 2.0;" width="211" x="80" y="24"/><text fill="#000000" font-family="sans-serif" font-size="14" font-weight="bold" lengthAdjust="spacingAndGlyphs" textLength="74" x="148.5" y="40.5332">GeroTimer</text><ellipse cx="185.2516" cy="78.9503" fill="#FEFECE" filter="url(#fiavwbd)" rx="82.7516" ry="18.9503" style="stroke: #A80036; stroke-width: 1.5;"/><text fill="#000000" font-family="sans-serif" font-size="14" lengthAdjust="spacingAndGlyphs" textLength="133" x="118.7516" y="84.255">Add a sequence item</text><ellipse cx="185.3351" cy="151.867" fill="#FEFECE" filter="url(#fiavwbd)" rx="82.3351" ry="18.867" style="stroke: #A80036; stroke-width: 1.5;"/><text fill="#000000" font-family="sans-serif" font-size="14" lengthAdjust="spacingAndGlyphs" textLength="132" x="119.3351" y="157.1717">Edit a sequence item</text><ellipse cx="185.535" cy="226.807" fill="#FEFECE" filter="url(#fiavwbd)" rx="89.535" ry="20.307" style="stroke: #A80036; stroke-width: 1.5;"/><text fill="#000000" font-family="sans-serif" font-size="14" lengthAdjust="spacingAndGlyphs" textLength="149" x="111.035" y="232.1117">Delete a sequence item</text><!--entity User--><ellipse cx="21" cy="119.5" fill="#FEFECE" filter="url(#fiavwbd)" rx="8" ry="8" style="stroke: #A80036; stroke-width: 2.0;"/><path d="M21,127.5 L21,154.5 M8,135.5 L34,135.5 M21,154.5 L8,169.5 M21,154.5 L34,169.5 " fill="#FEFECE" filter="url(#fiavwbd)" style="stroke: #A80036; stroke-width: 2.0;"/><text fill="#000000" font-family="sans-serif" font-size="14" lengthAdjust="spacingAndGlyphs" textLength="29" x="6.5" y="191.0332">User</text><path d="M36.0429,139.646 C45.6343,131.719 58.9287,121.696 72,115 C88.1827,106.711 106.651,99.845 123.88,94.411 " fill="none" style="stroke: #A80036; stroke-width: 1.0;"/><polygon fill="#A80036" points="128.704,92.916,118.9233,91.7594,123.9281,94.3961,121.2914,99.4009,128.704,92.916" style="stroke: #A80036; stroke-width: 1.0;"/><path d="M36.1365,152 C50.4103,152 73.7163,152 97.6719,152 " fill="none" style="stroke: #A80036; stroke-width: 1.0;"/><polygon fill="#A80036" points="102.7907,152,93.7907,148,97.7907,152,93.7907,156,102.7907,152" style="stroke: #A80036; stroke-width: 1.0;"/><path d="M36.1487,163.896 C45.7847,171.556 59.0891,181.2971 72,188 C88.1828,196.4016 106.57,203.6436 123.721,209.5277 " fill="none" style="stroke: #A80036; stroke-width: 1.0;"/><polygon fill="#A80036" points="128.523,211.1511,121.2782,204.4793,123.7864,209.5497,118.716,212.0579,128.523,211.1511" style="stroke: #A80036; stroke-width: 1.0;"/></g></svg>